PathFileType	4	(X/Y/Z)	s07c0102.trc
DataRate	CameraRate	NumFrames	NumMarkers	Units	OrigDataRate	OrigDataStartFrame	OrigNumFrames
200	200	6	48	mm	200	750	2000
Frame#	Time	racr			lacr			c7			jug			rlel			rdr			llel			ldr			s2			lic			ric			lasi			rasi			rpsi			lpsi			rgt			lgt			rth1			rth2			rth3			rth4			rlfc			rmfc			rsh1			rsh2			rsh3			rsh4			rlmal			rcal			rtoe			rmt5			lth1			lth2			lth4			lth3			llfc			lmfc			lsh1			lsh2			lsh3			lsh4			llmal			lcal			ltoe			lmt5			SBIKE			LBIKE			RBIKE			
		X1	Y1	Z1	X2	Y2	Z2	X3	Y3	Z3	X4	Y4	Z4	X5	Y5	Z5	X6	Y6	Z6	X7	Y7	Z7	X8	Y8	Z8	X9	Y9	Z9	X10	Y10	Z10	X11	Y11	Z11	X12	Y12	Z12	X13	Y13	Z13	X14	Y14	Z14	X15	Y15	Z15	X16	Y16	Z16	X17	Y17	Z17	X18	Y18	Z18	X19	Y19	Z19	X20	Y20	Z20	X21	Y21	Z21	X22	Y22	Z22	X23	Y23	Z23	X24	Y24	Z24	X25	Y25	Z25	X26	Y26	Z26	X27	Y27	Z27	X28	Y28	Z28	X29	Y29	Z29	X30	Y30	Z30	X31	Y31	Z31	X32	Y32	Z32	X33	Y33	Z33	X34	Y34	Z34	X35	Y35	Z35	X36	Y36	Z36	X37	Y37	Z37	X38	Y38	Z38	X39	Y39	Z39	X40	Y40	Z40	X41	Y41	Z41	X42	Y42	Z42	X43	Y43	Z43	X44	Y44	Z44	X45	Y45	Z45	X46	Y46	Z46	X47	Y47	Z47	X48	Y48	Z48	
750	3.7500	453.779292	1403.227101	-68.937583	500.228992	1369.431061	-314.431583	440.867344	1439.682803	-201.333587	400.182552	1297.574326	-196.593174	504.088184	1088.662805	62.830874	715.345707	915.938824	-63.480507	522.293917	1100.050148	-537.727523	718.156460	911.765200	-428.334442	-137.668655	1212.568061	-303.619553	41.117216	1257.499070	-426.868731	-0.869325	1278.342945	-137.438756	65.175028	1184.342647	-396.524242	27.471498	1230.312286	-151.887651	-119.782914	1258.947279	-257.659171	-94.314083	1260.204282	-359.893524	-35.721803	1159.404481	-93.798221	-12.675869	1096.349058	-449.092774	109.786584	1090.541272	-85.189750	193.276773	1065.009156	-93.839981	254.365084	1005.414998	-90.354593	209.442230	1093.213479	-113.263957	362.509063	914.059693	-118.570558	354.619635	891.814871	-224.073030	312.584098	781.193303	-85.315734	303.886143	692.585302	-96.884675	255.846550	620.911804	-89.044335	320.526731	688.577871	-133.871595	206.208871	485.693539	-81.594455	138.623960	438.924189	-107.947648	428.177447	434.101518	-131.846883	355.851310	394.521897	-58.696185	64.270310	1000.357542	-441.940842	138.351414	953.562846	-432.726811	163.291781	977.380789	-422.269227	179.535798	875.161535	-421.483388	270.047926	727.672428	-382.678820	250.983742	715.564046	-285.097166	176.949185	611.106760	-402.457901	141.310668	534.669916	-384.588591	69.821337	480.322770	-393.906595	142.457424	536.906690	-342.349118	-22.399320	382.335647	-396.328470	-101.318963	379.765480	-363.044960	136.649353	213.258794	-358.468597	57.200264	235.912347	-420.430317	-263.718954	970.745824	-241.653189	-83.388536	78.815591	-438.017065	-83.502600	79.493660	-40.486148	
751	3.7550	454.655812	1401.025152	-68.822692	500.191269	1371.359181	-315.849318	441.004748	1439.234614	-201.590780	401.383753	1296.772949	-198.464762	504.051985	1086.165676	63.338048	715.852495	915.103417	-63.386881	519.804176	1098.675749	-535.915096	718.563921	912.143334	-428.219009	-137.398315	1210.462251	-303.080286	41.476570	1255.760162	-425.784735	-0.232586	1275.488366	-136.516679	65.365809	1182.655890	-395.592588	27.753698	1227.546759	-150.697039	-119.682668	1256.659892	-256.564939	-94.062252	1258.102498	-359.163536	-36.469366	1154.173631	-93.179303	-11.245082	1094.860669	-448.757373	108.084317	1080.625863	-83.114338	190.884594	1052.745157	-91.533710	250.232884	991.416309	-88.335617	207.978527	1080.611047	-110.545425	355.190538	896.834669	-116.070024	347.541205	874.721734	-219.396254	307.021206	762.312447	-83.287323	299.063415	673.737759	-96.718487	252.294882	601.338644	-88.875180	315.557187	670.511075	-133.408582	203.461454	465.540251	-84.019006	139.295975	416.651396	-108.943394	428.867290	428.488397	-130.975257	358.402579	384.961120	-58.161005	67.674038	1000.969762	-440.434051	142.722540	956.116841	-430.730672	167.016843	980.391842	-420.252608	185.599890	878.612301	-419.477137	277.872437	732.052985	-381.121711	258.615992	719.241586	-282.927051	181.945016	617.423048	-401.676132	144.190885	541.732652	-384.153939	72.020818	488.899527	-393.688342	144.723588	543.058303	-342.390750	-22.020154	393.452779	-396.581402	-100.830652	393.348264	-363.320333	131.879319	219.951577	-358.774005	53.445999	244.754414	-420.518688	-263.729095	970.666943	-241.619666	-83.375253	78.792205	-438.009061	-83.401464	79.224238	-40.566396	
752	3.7600	455.474555	1399.340175	-68.826588	500.012134	1373.636967	-317.368918	441.026299	1439.425024	-202.105693	402.265476	1296.692192	-200.618743	504.208597	1084.200915	63.692147	716.434187	914.427441	-63.322443	517.356476	1097.644256	-533.946541	718.439213	912.115020	-427.335620	-137.078622	1208.355898	-302.188410	41.888028	1253.907080	-424.203371	0.607737	1272.477203	-135.436432	65.713225	1180.976714	-394.218408	28.083055	1224.425272	-149.256198	-119.654519	1254.321640	-253.939910	-93.836298	1255.900637	-358.204912	-37.164783	1148.915530	-92.336622	-9.567446	1093.386051	-448.257116	105.821563	1070.108165	-80.835451	188.130560	1039.900497	-89.391802	245.555675	976.722437	-86.393427	206.053719	1067.794937	-107.355106	347.087784	879.284674	-113.571411	339.727549	855.712470	-210.101627	301.999147	742.912473	-81.773288	295.057189	654.473346	-96.838646	249.832875	581.116584	-89.270268	310.733749	652.489389	-133.750431	202.598273	446.590288	-85.150478	140.655051	394.896531	-110.137623	429.435075	421.610063	-130.310885	360.588589	374.921474	-57.875052	71.037504	1001.731299	-439.014192	146.941619	958.435933	-429.120083	170.737307	983.247826	-418.627437	191.453044	881.875619	-417.740115	285.564723	736.611586	-379.772986	265.817453	722.910788	-281.661247	186.892323	623.962126	-401.012517	148.255808	548.975187	-383.946999	74.098142	497.850608	-393.446723	150.376087	550.458404	-341.572036	-21.472531	404.760601	-396.874610	-100.351723	406.414539	-363.019980	127.863442	227.218410	-358.903431	50.234605	253.937502	-420.660642	-263.671492	970.583509	-241.494321	-83.357856	78.753176	-437.984181	-83.406260	79.119178	-40.548098	
753	3.7650	456.619976	1398.344943	-69.100262	499.608953	1376.088477	-318.898738	440.935256	1440.171831	-202.811441	403.130723	1297.166726	-202.725800	504.535761	1082.496276	63.675421	716.856796	913.904157	-63.134389	515.115187	1097.010138	-532.022200	718.313262	911.855009	-426.238155	-136.784215	1206.233293	-301.011871	42.235024	1252.192225	-422.224080	1.618952	1269.449709	-133.971858	65.964119	1179.335465	-392.489919	28.544302	1221.196887	-147.561345	-119.417408	1252.005333	-252.582127	-93.798885	1253.949826	-356.797715	-37.850160	1143.717958	-91.078123	-7.844749	1092.027366	-447.473862	103.626914	1059.523907	-78.774518	184.960415	1026.788248	-86.988400	240.299557	961.888491	-84.373473	204.148501	1054.426874	-104.148035	338.627012	861.971638	-111.112556	331.880540	841.665390	-213.223398	297.289097	724.257245	-81.005331	291.413589	635.771862	-97.602836	248.063254	561.284136	-89.925355	306.438421	634.920116	-134.639048	202.525093	427.707590	-86.195071	142.188963	374.297930	-111.160524	429.989400	413.516491	-129.789444	362.528324	364.057102	-57.916006	74.222041	1002.393428	-437.741767	150.974694	960.709673	-427.843859	174.236465	985.931713	-417.531108	197.018285	885.040420	-416.480945	293.359780	741.409986	-378.407024	273.094384	727.321666	-280.701929	191.952892	630.912318	-400.398495	151.108390	556.676784	-383.619130	76.971411	506.802681	-393.621127	153.956115	557.265957	-341.524653	-20.521668	416.181819	-397.195261	-99.061069	419.998605	-363.244658	124.407593	234.994346	-359.024663	47.603205	263.432365	-420.819654	-263.544611	970.498043	-241.328975	-83.344985	78.736633	-437.981459	-83.373704	78.942368	-40.526330	
754	3.7700	457.745267	1397.957462	-69.592296	499.895450	1379.121449	-322.261641	440.708784	1441.519787	-203.653049	404.518996	1298.096522	-205.089192	504.757272	1081.074520	63.508050	717.025954	913.569258	-63.015037	513.279859	1096.675794	-530.112819	718.313640	911.460771	-425.434097	-136.386339	1204.177227	-299.595768	42.534739	1250.750352	-420.229724	2.905857	1266.398921	-132.409696	66.402884	1178.026137	-390.629077	29.001165	1217.866546	-145.523169	-119.199012	1249.646880	-250.547437	-93.684701	1252.060701	-355.171834	-38.284620	1138.788227	-89.674730	-6.073054	1090.859333	-446.489975	101.298506	1049.262105	-76.826157	181.738355	1013.930892	-84.619869	234.587725	947.192784	-82.837298	202.246652	1042.157105	-99.769097	330.317388	845.796519	-109.156959	323.792974	825.127816	-210.536823	291.609134	707.678150	-81.368573	288.164526	619.646515	-98.131763	246.557578	544.135797	-90.422743	302.318653	619.269070	-135.711119	202.893962	409.414722	-87.306635	143.543489	354.876438	-112.050612	430.075192	404.734337	-129.284285	363.802111	352.818679	-57.828482	77.191091	1002.947031	-436.636892	154.813105	962.788713	-426.847789	177.581625	988.516849	-416.589432	202.482747	888.140083	-415.700248	301.099906	746.615998	-377.242127	280.496422	731.644743	-279.668232	197.303417	637.977277	-399.669021	155.931517	564.161525	-383.362669	80.324316	516.363138	-394.002659	158.205369	564.622931	-341.276078	-19.000883	427.799004	-397.371481	-97.284012	433.632303	-363.515988	121.773347	243.424107	-359.218787	45.583892	273.194969	-420.959817	-263.339079	970.490979	-241.208128	-83.327951	78.704291	-437.962196	-83.329512	78.905274	-40.530020	
755	3.7750	459.017914	1398.049992	-70.558566	499.190795	1381.740837	-324.551888	440.289469	1443.207376	-204.682191	404.920819	1299.588273	-207.326982	504.810369	1080.225756	63.423671	716.907522	913.312248	-63.020096	511.915369	1096.648672	-528.253919	718.467784	911.093171	-424.877956	-136.018395	1202.265916	-298.002639	42.868224	1249.617876	-418.121058	4.422707	1263.625986	-130.487565	66.777558	1176.884192	-388.491366	29.458675	1214.483529	-143.037901	-119.045929	1247.640021	-248.199524	-93.518133	1250.212615	-353.364696	-38.630844	1134.362163	-87.626511	-4.370679	1089.963045	-445.289746	99.032406	1039.756450	-74.957071	178.142609	1001.643181	-82.555146	228.397447	932.882336	-81.473674	199.934883	1029.458902	-96.353377	322.572692	831.614719	-107.752897	315.626391	810.465764	-209.558957	286.562224	693.659446	-79.468454	284.267099	605.499308	-97.796833	244.101634	529.111314	-90.298316	297.884001	605.755362	-135.511846	203.214213	392.332608	-87.296892	144.829735	336.204220	-112.910300	429.367955	395.705930	-128.579990	364.370554	341.491469	-57.688341	79.929931	1003.414803	-435.760193	158.447663	964.882724	-426.195972	180.698202	991.046055	-415.983954	207.720041	891.301977	-415.393271	308.822052	752.183514	-376.161413	287.427016	736.713091	-278.172213	202.965163	645.360248	-398.878100	160.108968	572.321242	-382.874664	83.185916	526.162496	-393.270882	163.027164	571.934479	-341.160338	-16.889636	439.620861	-397.688812	-95.061167	446.820626	-363.614525	119.771976	251.933222	-359.218267	44.201920	283.177169	-421.062004	-263.100499	970.506750	-241.098333	-83.294017	78.697397	-437.958903	-83.319153	78.867104	-40.518868	
